{"title":"Babysitters Taking On Big Dicks 2 **[NEW ]** - 21.August.2014","uid":10830844,"size":1272425773,"categoryP":"porn","categoryS":"movies","magnet":"?xt=urn:btih:de8965cd5ef90b23bb0b0a9d50ef79d4dde89c74&amp;dn=Babysitters+Taking+On+Big+Dicks+2+%2A%2A%5BNEW+%5D%2A%2A+-+21.August.2014&amp;tr=udp%3A%2F%2Ftracker.openbittorrent.com%3A80&amp;tr=udp%3A%2F%2Fopen.demonii.com%3A1337&amp;tr=udp%3A%2F%2Ftracker.coppersurfer.tk%3A6969&amp;tr=udp%3A%2F%2Fexodus.desync.com%3A6969","seeders":0,"leechers":1,"uploader":"iH2OSO4","files":-1,"time":1408622051,"description":"Babysitters Taking On Big Dicks 2 **[NEW ]** - 21.August.2014\nSOURCE: http://nuscotower.com/i/vik58247df.html\n\nYour favorite slutty sitters are back and ready to stay up late to fuck your brains out! Don't send her home without getting a nice deep suck and giving her a good hardcore fucking - it's what she's been waiting for all night long!\nScarlet Red, Sara Luvv, Carmen Caliente, Rose Red, Mark Wood, Bill Bailey, Anthony Rosano, Will Powers\n\nGeneral\nBabysitters.Taking.On.Big.Dicks.2.XXX.DVDRiP -1-.mp4\n\nSOURCE: http://nuscotower.com/i/vik58247df.html\n\nFormat                           : MPEG-4\nFormat profile                   : Base Media\nCodec ID                         : isom\nFile size                        : 314 MiB\nDuration                         : 26mn 30s\nOverall bit rate                 : 1 659 Kbps\nEncoded date                     : UTC 2014-08-21 06:29:53\nTagged date                      : UTC 2014-08-21 06:29:53\n\nVideo\nID                               : 1\nFormat                           : MPEG-4 Visual\nFormat profile                   : Simple@L1\nFormat settings, BVOP            : No\nFormat settings, QPel            : No\nFormat settings, GMC             : No warppoints\nFormat settings, Matrix          : Default (H.263)\nCodec ID                         : 20\nDuration                         : 26mn 30s\nBit rate mode                    : Variable\nBit rate                         : 1 531 Kbps\nMaximum bit rate                 : 3 256 Kbps\nWidth                            : 640 pixels\nHeight                           : 360 pixels\nDisplay aspect ratio             : 16:9\nFrame rate mode                  : Constant\nFrame rate                       : 23.976 fps\nColor space                      : YUV\nChroma subsampling               : 4:2:0\nBit depth                        : 8 bits\nScan type                        : Progressive\nCompression mode                 : Lossy\nBits/(Pixel*Frame)               : 0.277\nStream size                      : 290 MiB (92%)\nWriting library                  : Lavc53.8.0\nEncoded date                     : UTC 2014-08-21 06:29:53\nTagged date                      : UTC 2014-08-21 06:30:41\n\nAudio\nID                               : 2\nFormat                           : AAC\nFormat/Info                      : Advanced Audio Codec\nFormat profile                   : LC\nCodec ID                         : 40\nDuration                         : 26mn 30s\nBit rate mode                    : Variable\nBit rate                         : 125 Kbps\nMaximum bit rate                 : 213 Kbps\nChannel(s)                       : 2 channels\nChannel positions                : Front: L R\nSampling rate                    : 44.1 KHz\nCompression mode                 : Lossy\nStream size                      : 23.8 MiB (8%)\nEncoded date                     : UTC 2014-08-21 06:30:35\nTagged date                      : UTC 2014-08-21 06:30:41\n\n\n///////////////////\n\n\nGeneral\nBabysitters.Taking.On.Big.Dicks.2.XXX.DVDRiP -2-.mp4\n\nSOURCE: http://nuscotower.com/i/vik58247df.html\n\nFormat                           : MPEG-4\nFormat profile                   : Base Media\nCodec ID                         : isom\nFile size                        : 294 MiB\nDuration                         : 24mn 47s\nOverall bit rate                 : 1 659 Kbps\nEncoded date                     : UTC 2014-08-21 06:47:34\nTagged date                      : UTC 2014-08-21 06:47:34\n\nVideo\nID                               : 1\nFormat                           : MPEG-4 Visual\nFormat profile                   : Simple@L1\nFormat settings, BVOP            : No\nFormat settings, QPel            : No\nFormat settings, GMC             : No warppoints\nFormat settings, Matrix          : Default (H.263)\nCodec ID                         : 20\nDuration                         : 24mn 47s\nBit rate mode                    : Variable\nBit rate                         : 1 531 Kbps\nMaximum bit rate                 : 4 140 Kbps\nWidth                            : 640 pixels\nHeight                           : 360 pixels\nDisplay aspect ratio             : 16:9\nFrame rate mode                  : Constant\nFrame rate                       : 23.976 fps\nColor space                      : YUV\nChroma subsampling               : 4:2:0\nBit depth                        : 8 bits\nScan type                        : Progressive\nCompression mode                 : Lossy\nBits/(Pixel*Frame)               : 0.277\nStream size                      : 271 MiB (92%)\nWriting library                  : Lavc53.8.0\nEncoded date                     : UTC 2014-08-21 06:47:34\nTagged date                      : UTC 2014-08-21 06:48:15\n\nAudio\nID                               : 2\nFormat                           : AAC\nFormat/Info                      : Advanced Audio Codec\nFormat profile                   : LC\nCodec ID                         : 40\nDuration                         : 24mn 47s\nBit rate mode                    : Variable\nBit rate                         : 125 Kbps\nMaximum bit rate                 : 202 Kbps\nChannel(s)                       : 2 channels\nChannel positions                : Front: L R\nSampling rate                    : 44.1 KHz\nCompression mode                 : Lossy\nStream size                      : 22.3 MiB (8%)\nEncoded date                     : UTC 2014-08-21 06:48:09\nTagged date                      : UTC 2014-08-21 06:48:15\n\n\n/////////////////\n\nGeneral\nBabysitters.Taking.On.Big.Dicks.2.XXX.DVDRiP -3-.mp4\n\nSOURCE: http://nuscotower.com/i/vik58247df.html\n\nFormat                           : MPEG-4\nFormat profile                   : Base Media\nCodec ID                         : isom\nFile size                        : 293 MiB\nDuration                         : 24mn 43s\nOverall bit rate                 : 1 659 Kbps\nEncoded date                     : UTC 2014-08-21 06:47:34\nTagged date                      : UTC 2014-08-21 06:47:34\n\nVideo\nID                               : 1\nFormat                           : MPEG-4 Visual\nFormat profile                   : Simple@L1\nFormat settings, BVOP            : No\nFormat settings, QPel            : No\nFormat settings, GMC             : No warppoints\nFormat settings, Matrix          : Default (H.263)\nCodec ID                         : 20\nDuration                         : 24mn 43s\nBit rate mode                    : Variable\nBit rate                         : 1 531 Kbps\nMaximum bit rate                 : 2 586 Kbps\nWidth                            : 640 pixels\nHeight                           : 360 pixels\nDisplay aspect ratio             : 16:9\nFrame rate mode                  : Constant\nFrame rate                       : 23.976 fps\nColor space                      : YUV\nChroma subsampling               : 4:2:0\nBit depth                        : 8 bits\nScan type                        : Progressive\nCompression mode                 : Lossy\nBits/(Pixel*Frame)               : 0.277\nStream size                      : 271 MiB (92%)\nWriting library                  : Lavc53.8.0\nEncoded date                     : UTC 2014-08-21 06:47:34\nTagged date                      : UTC 2014-08-21 06:48:15\n\nAudio\nID                               : 2\nFormat                           : AAC\nFormat/Info                      : Advanced Audio Codec\nFormat profile                   : LC\nCodec ID                         : 40\nDuration                         : 24mn 43s\nBit rate mode                    : Variable\nBit rate                         : 125 Kbps\nMaximum bit rate                 : 205 Kbps\nChannel(s)                       : 2 channels\nChannel positions                : Front: L R\nSampling rate                    : 44.1 KHz\nCompression mode                 : Lossy\nStream size                      : 22.2 MiB (8%)\nEncoded date                     : UTC 2014-08-21 06:48:09\nTagged date                      : UTC 2014-08-21 06:48:15\n\n\n/////////////\n\n\nGeneral\nBabysitters.Taking.On.Big.Dicks.2.XXX.DVDRiP -4-.mp4\n\nSOURCE: http://nuscotower.com/i/vik58247df.html\n\nFormat                           : MPEG-4\nFormat profile                   : Base Media\nCodec ID                         : isom\nFile size                        : 311 MiB\nDuration                         : 26mn 12s\nOverall bit rate                 : 1 661 Kbps\nEncoded date                     : UTC 2014-08-21 06:29:52\nTagged date                      : UTC 2014-08-21 06:29:52\n\nVideo\nID                               : 1\nFormat                           : MPEG-4 Visual\nFormat profile                   : Simple@L1\nFormat settings, BVOP            : No\nFormat settings, QPel            : No\nFormat settings, GMC             : No warppoints\nFormat settings, Matrix          : Default (H.263)\nCodec ID                         : 20\nDuration                         : 26mn 12s\nBit rate mode                    : Variable\nBit rate                         : 1 533 Kbps\nMaximum bit rate                 : 2 475 Kbps\nWidth                            : 640 pixels\nHeight                           : 360 pixels\nDisplay aspect ratio             : 16:9\nFrame rate mode                  : Constant\nFrame rate                       : 23.976 fps\nColor space                      : YUV\nChroma subsampling               : 4:2:0\nBit depth                        : 8 bits\nScan type                        : Progressive\nCompression mode                 : Lossy\nBits/(Pixel*Frame)               : 0.278\nStream size                      : 287 MiB (92%)\nWriting library                  : Lavc53.8.0\nEncoded date                     : UTC 2014-08-21 06:29:52\nTagged date                      : UTC 2014-08-21 06:30:41\n\nAudio\nID                               : 2\nFormat                           : AAC\nFormat/Info                      : Advanced Audio Codec\nFormat profile                   : LC\nCodec ID                         : 40\nDuration                         : 26mn 12s\nBit rate mode                    : Variable\nBit rate                         : 125 Kbps\nMaximum bit rate                 : 192 Kbps\nChannel(s)                       : 2 channels\nChannel positions                : Front: L R\nSampling rate                    : 44.1 KHz\nCompression mode                 : Lossy\nStream size                      : 23.5 MiB (8%)\nEncoded date                     : UTC 2014-08-21 06:30:35\nTagged date                      : UTC 2014-08-21 06:30:41\n\n\n","torrent":{"xt":"urn:btih:de8965cd5ef90b23bb0b0a9d50ef79d4dde89c74","amp;dn":"Babysitters+Taking+On+Big+Dicks+2+%2A%2A%5BNEW+%5D%2A%2A+-+21.August.2014","amp;tr":["udp%3A%2F%2Ftracker.openbittorrent.com%3A80","udp%3A%2F%2Fopen.demonii.com%3A1337","udp%3A%2F%2Ftracker.coppersurfer.tk%3A6969","udp%3A%2F%2Fexodus.desync.com%3A6969"],"infoHash":"de8965cd5ef90b23bb0b0a9d50ef79d4dde89c74","infoHashBuffer":{"type":"Buffer","data":[222,137,101,205,94,249,11,35,187,11,10,157,80,239,121,212,221,232,156,116]},"announce":[],"urlList":[]}}